<svg xmlns="http://www.w3.org/2000/svg" viewBox="0 0 198.98 53.61"><defs><style>.cls-1{fill:#fff;}.cls-2{fill:#ebc239;}</style></defs><title>Logo-Branca</title><g id="Camada_2" data-name="Camada 2"><g id="Camada_1-2" data-name="Camada 1"><path class="cls-1" d="M11.37,37.2a20,20,0,0,1-4,.62C2.14,37.82,0,35.28,0,24.45S2.47,11.89,7.77,11.89a15.63,15.63,0,0,1,3.6.51v2.69a19.6,19.6,0,0,0-4.25-.48c-2.65,0-3.89,1.31-3.89,10.1,0,9.15,1.31,10.38,3.92,10.38a20.54,20.54,0,0,0,4.22-.54Z"/><polygon class="cls-1" points="16.81 37.56 16.81 12.14 19.97 12.14 19.97 34.8 28.07 34.8 28.07 37.56 16.81 37.56"/><path class="cls-1" d="M45.86,30.85c0,4.9-2.61,7-6.79,7s-6.83-2.07-6.83-7V12.14H35.4v19.4c0,2.54,1.49,3.63,3.67,3.63s3.63-1.09,3.63-3.63V12.14h3.16Z"/><path class="cls-1" d="M58.75,37.82c-3,0-6.17-.26-6.17-.26V12.14s3.37-.25,5.73-.25c4.36,0,7,1.78,7,6.65,0,3-1.46,4.86-2.91,5.48,1.45.51,3.52,1.81,3.52,5.88,0,6.07-2.79,7.92-7.15,7.92m0-23.32a19.52,19.52,0,0,0-3,.22v8.17h3c1.45,0,3.38-.25,3.38-4.1,0-3-.66-4.29-3.38-4.29m.36,11H55.74V35s1.81.18,3.34.18c2,0,3.59-.77,3.59-5,0-3.16-.91-4.65-3.56-4.65"/><polygon class="cls-1" points="138.74 37.56 133.8 37.56 131.37 26.52 128.72 37.56 124 37.56 122.77 12.14 125.56 12.14 126.65 35.57 129.92 22.86 132.9 22.86 136.2 35.57 137.33 12.14 139.98 12.14 138.74 37.56"/><path class="cls-1" d="M152.1,37.82c-6,0-7.58-4.36-7.58-13.26,0-8.53,1.59-12.67,7.58-12.67s7.59,4.14,7.59,12.67c0,8.9-1.59,13.26-7.59,13.26m0-23.28c-3.26,0-4.35,2.22-4.35,10.2,0,7.81,1.09,10.43,4.35,10.43s4.36-2.62,4.36-10.43c0-8-1.09-10.2-4.36-10.2"/><path class="cls-1" d="M175.42,26.52l5,11h-3.48L172.26,27H169V37.56h-3.16V12.14s3.12-.25,6.13-.25c5.52,0,7.05,2.94,7.05,7.41,0,3.74-1.06,6.21-3.63,7.22m-3-12a24.46,24.46,0,0,0-3.41.22v9.66h3.41c2,0,3.38-.87,3.38-4.83,0-3.52-.8-5.05-3.38-5.05"/><polygon class="cls-1" points="195.42 37.56 189.76 25.91 188.45 28.09 188.45 37.56 185.29 37.56 185.29 12.14 188.45 12.14 188.45 23.29 195.24 12.14 198.62 12.14 191.72 23.25 198.98 37.56 195.42 37.56"/><path class="cls-1" d="M106.28,48.79H85.67a12,12,0,0,1-12-12V16.16a12,12,0,0,1,12-12h20.61a12,12,0,0,1,12,12V36.77a12,12,0,0,1-12,12M85.67,7.57a8.6,8.6,0,0,0-8.59,8.59V36.77a8.6,8.6,0,0,0,8.59,8.59h20.61a8.61,8.61,0,0,0,8.59-8.59V16.16a8.6,8.6,0,0,0-8.59-8.59Z"/><polygon class="cls-2" points="104.47 41.66 104.47 53.61 97.96 53.61 97.96 41.66 82.8 41.66 82.8 35.08 90.38 0 96.58 0 89.31 36.07 97.96 36.07 98.5 18.61 104.47 18.61 104.47 36.07 109.83 36.07 109.83 41.66 104.47 41.66"/></g></g></svg>